<svg width="35" height="34" viewBox="0 0 35 34" fill="none" xmlns="http://www.w3.org/2000/svg">
<mask id="mask0_124_5048" style="mask-type:alpha" maskUnits="userSpaceOnUse" x="0" y="0" width="35" height="34">
<rect width="35" height="34" fill="#C4C4C4"/>
</mask>
<g mask="url(#mask0_124_5048)">
<path d="M17.4937 6.91589C21.1966 6.91589 24.8946 6.935 28.5926 6.90633C29.7504 6.89677 30.6395 7.75226 30.6248 8.89449C30.6004 11.8672 30.6151 14.8351 30.6151 17.8078C30.6151 18.9883 29.8188 19.7673 28.6122 19.772C28.1969 19.772 27.7817 19.7625 27.3665 19.7768C27.1711 19.7864 27.1027 19.7195 27.0538 19.5426C26.6825 18.0611 26.3015 16.5795 25.9254 15.0979C25.7739 14.5005 25.4662 14.2616 24.8311 14.2616C19.9362 14.2616 15.0413 14.2616 10.1514 14.2616C9.50653 14.2616 9.20365 14.4958 9.04733 15.1171C8.67118 16.5986 8.29014 18.0802 7.91887 19.5618C7.87979 19.7147 7.82117 19.7864 7.6453 19.7816C7.19099 19.7673 6.73668 19.7816 6.27748 19.7768C5.19787 19.7625 4.38206 18.9596 4.37717 17.889C4.37229 15.7384 4.37717 13.5877 4.37717 11.4371C4.37717 10.5672 4.37717 9.70219 4.37717 8.83236C4.38206 7.70924 5.17833 6.92067 6.32144 6.92067C10.0488 6.91589 13.7712 6.91589 17.4937 6.91589ZM24.9874 11.504C25.2952 11.504 25.6029 11.5087 25.9107 11.504C26.4432 11.4944 26.8486 11.1121 26.8633 10.615C26.8779 10.1132 26.4969 9.69741 25.9644 9.67829C25.3245 9.65917 24.6845 9.65917 24.0397 9.67829C23.5072 9.69263 23.1115 10.1084 23.1213 10.6007C23.1311 11.1073 23.5414 11.4992 24.0886 11.5087C24.3865 11.5087 24.6845 11.504 24.9874 11.504Z" fill="#415E72"/>
<path d="M24.2645 16.1063C24.5722 17.3155 24.88 18.5246 25.1975 19.7529C20.0633 19.7529 14.9584 19.7529 9.79968 19.7529C10.1123 18.5342 10.4201 17.3203 10.7279 16.1063C15.2466 16.1063 19.7458 16.1063 24.2645 16.1063Z" fill="#415E72"/>
<path d="M9.99999 21.5977C10.6106 21.5977 11.1773 21.5977 11.744 21.5977C11.7831 21.5977 11.8221 21.6072 11.9198 21.6168C11.8808 22.2715 11.9149 22.9311 11.7831 23.5619C11.5828 24.5464 10.6644 25.2251 9.64338 25.2729C9.21349 25.2968 9.06693 25.4449 9.06693 25.8703C9.06693 26.2718 9.06693 26.678 9.06693 27.0938C8.43676 27.0938 7.831 27.0938 7.16174 27.0938C7.20082 26.4295 7.16174 25.7604 7.29364 25.1247C7.49882 24.1593 8.35371 23.5285 9.40401 23.4377C9.90229 23.3947 9.9951 23.2895 9.9951 22.7925C9.99999 22.4053 9.99999 22.0182 9.99999 21.5977Z" fill="#415E72"/>
<path d="M15.6325 27.0938C14.9828 27.0938 14.377 27.0938 13.7175 27.0938C13.7468 26.4629 13.7126 25.8321 13.8201 25.2299C14.0009 24.2263 14.8704 23.5428 15.9549 23.4425C16.463 23.3947 16.5607 23.2848 16.5655 22.7829C16.5655 22.4006 16.5655 22.0183 16.5655 21.6216C17.186 21.6216 17.7917 21.6216 18.4121 21.6216C18.417 21.6694 18.4365 21.7219 18.4317 21.7745C18.417 22.3289 18.4658 22.8976 18.373 23.4425C18.1923 24.4939 17.269 25.2347 16.1845 25.2873C15.7742 25.3064 15.6325 25.4497 15.6325 25.8464C15.6325 26.2479 15.6325 26.6637 15.6325 27.0938Z" fill="#415E72"/>
<path d="M26.3308 23.9157C26.2282 24.0878 26.1647 24.1116 25.9644 24.0543C25.7299 23.9874 25.5003 23.9157 25.2659 23.8536C25.2219 23.844 25.1682 23.8488 25.1291 23.8679C24.9581 23.9539 24.7969 24.0447 24.6259 24.1355C24.5868 24.1547 24.5771 24.1786 24.5819 24.2216C24.5917 24.3076 24.5868 24.3984 24.5771 24.4844C24.5722 24.5322 24.5771 24.5609 24.621 24.5896C24.792 24.6852 24.9581 24.7903 25.1242 24.8811C25.1535 24.9002 25.2024 24.905 25.2366 24.8954C25.4955 24.8381 25.7544 24.776 26.0133 24.7138C26.1256 24.6899 26.2233 24.733 26.2673 24.8285C26.3308 24.9576 26.2575 25.101 26.1061 25.1392C25.984 25.1679 25.8618 25.1965 25.7202 25.23C25.8472 25.3065 25.9644 25.3638 26.067 25.4403C26.1208 25.4785 26.1696 25.5359 26.1891 25.5932C26.2185 25.6745 26.1843 25.7557 26.111 25.8131C26.0279 25.8704 25.94 25.8752 25.857 25.8226C25.7299 25.7509 25.6078 25.6745 25.4613 25.5884C25.4955 25.727 25.5297 25.8465 25.5541 25.9708C25.5639 26.0281 25.5687 26.095 25.5492 26.1524C25.5248 26.2384 25.4271 26.291 25.3343 26.2862C25.2366 26.2814 25.1535 26.2097 25.1242 26.1046C25.0705 25.8895 25.007 25.6745 24.9679 25.4546C24.9434 25.316 24.8799 25.2252 24.748 25.1631C24.621 25.1057 24.5087 25.0245 24.3865 24.9528C24.3426 24.9289 24.3182 24.9241 24.2693 24.9576C24.2009 25.0101 24.1227 25.0484 24.0397 25.0818C23.9957 25.101 23.9762 25.1201 23.9811 25.1679C23.986 25.3495 23.9811 25.5359 23.986 25.7175C23.986 25.7605 24.0104 25.8131 24.0397 25.8417C24.2156 26.0233 24.4012 26.2002 24.5819 26.377C24.6894 26.4822 24.6992 26.6208 24.6015 26.7116C24.5087 26.8024 24.3719 26.7928 24.2644 26.6924C24.1765 26.6064 24.0886 26.5156 23.986 26.4152C23.9811 26.4487 23.9762 26.4726 23.9762 26.4917C23.9762 26.616 23.9762 26.7402 23.9762 26.8597C23.9713 26.984 23.8736 27.0748 23.7515 27.0748C23.6294 27.0748 23.5365 26.984 23.5365 26.8597C23.5317 26.7163 23.5365 26.5777 23.5365 26.4344C23.5268 26.4296 23.5219 26.4248 23.5121 26.42C23.4242 26.5108 23.3411 26.6016 23.2483 26.6877C23.2141 26.7211 23.1702 26.7498 23.1262 26.7641C23.0285 26.7928 22.9259 26.745 22.877 26.6638C22.8282 26.5777 22.8429 26.4678 22.921 26.3913C23.1066 26.2097 23.2923 26.0281 23.4779 25.8417C23.5072 25.8131 23.5317 25.7605 23.5317 25.7175C23.5365 25.5359 23.5317 25.359 23.5365 25.1774C23.5365 25.1296 23.5219 25.1057 23.473 25.0818C23.3802 25.0388 23.2972 24.9815 23.2092 24.9337C23.1848 24.9193 23.1457 24.9146 23.1213 24.9241C22.9454 25.0149 22.7696 25.1057 22.5986 25.2061C22.5693 25.2204 22.5449 25.2587 22.5351 25.2873C22.4569 25.5359 22.3837 25.7844 22.3104 26.0329C22.2762 26.1428 22.2078 26.2002 22.1052 26.205C21.9489 26.2145 21.8365 26.0759 21.8756 25.923C21.9098 25.7939 21.9489 25.6697 21.9928 25.5263C21.8805 25.5884 21.7828 25.6362 21.6851 25.6888C21.6509 25.7079 21.6118 25.7318 21.5776 25.7462C21.4653 25.7892 21.348 25.7462 21.2943 25.6458C21.2405 25.5454 21.2747 25.4212 21.3773 25.359C21.5043 25.2873 21.6362 25.2157 21.7828 25.1392C21.6313 25.0962 21.4994 25.0579 21.3675 25.0149C21.2308 24.9719 21.1721 24.8333 21.2308 24.7138C21.2796 24.6182 21.3822 24.5705 21.4946 24.5991C21.7486 24.6708 22.0075 24.7425 22.2615 24.819C22.3201 24.8381 22.3641 24.8285 22.4178 24.7999C22.5937 24.6995 22.7745 24.6087 22.9406 24.5179C22.9454 24.3888 22.9552 24.2741 22.9552 24.1547C22.9552 24.1308 22.9406 24.1021 22.921 24.0878C22.7451 23.9826 22.5742 23.8775 22.3934 23.7771C22.3641 23.7628 22.3201 23.7628 22.2859 23.7675C22.0222 23.8249 21.7632 23.8918 21.4994 23.9492C21.3382 23.9826 21.2063 23.8536 21.2357 23.6959C21.2552 23.5955 21.3236 23.5429 21.4164 23.519C21.5385 23.4903 21.6607 23.4617 21.8023 23.4282C21.6655 23.347 21.5434 23.2801 21.4262 23.2036C21.3382 23.151 21.304 23.065 21.3236 22.9694C21.3431 22.8834 21.4164 22.8069 21.5141 22.8021C21.5727 22.8021 21.6362 22.8213 21.6851 22.8452C21.8072 22.9073 21.9196 22.979 22.0563 23.0602C22.0222 22.9121 21.988 22.7878 21.9586 22.6635C21.9293 22.5345 21.9684 22.4389 22.0661 22.3911C22.2029 22.3194 22.3543 22.3911 22.3934 22.5441C22.4569 22.8021 22.5204 23.0602 22.5888 23.3183C22.5937 23.347 22.6084 23.3804 22.6328 23.3948C22.8184 23.5095 23.0089 23.6194 23.1799 23.7198C23.2923 23.6624 23.3949 23.6098 23.4926 23.5573C23.5121 23.5429 23.5365 23.5095 23.5365 23.4856C23.5414 23.2896 23.5414 23.0985 23.5365 22.9025C23.5365 22.869 23.5072 22.8308 23.4828 22.8021C23.2972 22.6157 23.1018 22.4294 22.9161 22.243C22.8429 22.1713 22.8331 22.0661 22.8819 21.9801C22.9308 21.8941 23.0285 21.8511 23.1311 21.8797C23.175 21.8941 23.219 21.9228 23.2532 21.9562C23.346 22.0422 23.4339 22.133 23.5414 22.2382C23.5414 22.0948 23.5463 21.9753 23.5414 21.8606C23.5316 21.7268 23.5756 21.6264 23.7026 21.5691C23.7417 21.5691 23.7857 21.5691 23.8248 21.5691C23.9469 21.6264 24.0006 21.722 23.986 21.8511C23.9811 21.9228 23.986 21.9944 23.986 22.0661C23.986 22.1139 23.986 22.1617 23.986 22.2095C23.9957 22.2143 24.0055 22.2143 24.0153 22.2191C24.1032 22.1283 24.1863 22.0375 24.2742 21.9514C24.3817 21.8463 24.5233 21.8415 24.6161 21.9323C24.7041 22.0231 24.6943 22.1569 24.5868 22.2621C24.4012 22.4437 24.2205 22.6205 24.0348 22.8021C24.0104 22.826 23.986 22.8595 23.986 22.8882C23.9811 23.0889 23.9811 23.2896 23.986 23.4903C23.986 23.5095 24.0006 23.5381 24.0202 23.5477C24.1325 23.6098 24.2498 23.672 24.3719 23.7341C24.5429 23.6433 24.7285 23.5477 24.9093 23.4426C24.9434 23.4234 24.9728 23.3852 24.9825 23.347C25.0607 23.1032 25.134 22.8547 25.2072 22.6062C25.2512 22.4676 25.3685 22.4007 25.4955 22.4389C25.6176 22.4771 25.6713 22.5966 25.6322 22.7304C25.6274 22.7543 25.6176 22.7735 25.6127 22.7974C25.5834 22.8977 25.5541 22.9933 25.5199 23.108C25.5981 23.065 25.6616 23.0315 25.7202 23.0029C25.7837 22.9694 25.8423 22.936 25.9058 22.9025C26.0231 22.8452 26.1501 22.8738 26.2136 22.979C26.282 23.0841 26.2429 23.2179 26.1208 23.2896C25.9986 23.3565 25.8716 23.4234 25.7299 23.4999C25.8618 23.5381 25.9742 23.5764 26.0866 23.6003C26.1989 23.6242 26.2771 23.6863 26.3113 23.7914C26.3308 23.8583 26.3308 23.887 26.3308 23.9157Z" fill="#415E72"/>
</g>
</svg>
