<svg width="35" height="35" viewBox="0 0 35 35" fill="none" xmlns="http://www.w3.org/2000/svg">
<g filter="url(#filter0_i_124_4929)">
<mask id="mask0_124_4929" style="mask-type:alpha" maskUnits="userSpaceOnUse" x="0" y="0" width="35" height="35">
<rect x="0.400146" y="0.133301" width="34" height="34" fill="#C4C4C4"/>
</mask>
<g mask="url(#mask0_124_4929)">
<path d="M30.8705 14.9381C30.332 15.8678 29.9987 15.9969 28.9473 15.687C27.7165 15.3254 26.5113 14.9381 25.2805 14.6024C25.0497 14.5507 24.7676 14.5765 24.5625 14.6798C23.665 15.1447 22.8188 15.6353 21.9213 16.126C21.7162 16.2293 21.6649 16.3584 21.6905 16.5909C21.7418 17.0557 21.7162 17.5464 21.6649 18.0112C21.6392 18.2695 21.6649 18.4244 21.8957 18.5794C22.7931 19.0958 23.665 19.664 24.5368 20.1547C24.6907 20.258 24.9471 20.2838 25.1266 20.2321C26.4857 19.9222 27.8447 19.5865 29.2038 19.2508C29.7935 19.1217 30.3064 19.3541 30.5372 19.8706C30.8705 20.5679 30.4859 21.3426 29.691 21.5492C29.0499 21.7041 28.4088 21.8591 27.6652 22.0399C28.3319 22.453 28.9473 22.7629 29.4858 23.1761C29.7679 23.3827 30.0243 23.6926 30.1269 24.0025C30.2807 24.4415 30.1012 24.8806 29.7166 25.1905C29.2807 25.5004 28.8191 25.5262 28.3832 25.2421C27.7165 24.8547 27.0754 24.4415 26.3062 23.9767C26.4857 24.7256 26.6652 25.3712 26.7934 26.0427C26.8447 26.3526 26.8703 26.7141 26.7677 27.024C26.6395 27.4889 26.1267 27.7729 25.6395 27.7471C25.1266 27.7213 24.6907 27.3339 24.5368 26.7658C24.2548 25.6037 23.9214 24.4415 23.7163 23.2536C23.5881 22.5047 23.2547 22.014 22.5624 21.6783C21.8957 21.3684 21.3059 20.9294 20.6648 20.542C20.434 20.4129 20.3058 20.3871 20.0494 20.5679C19.6904 20.8519 19.2801 21.0585 18.8442 21.2393C18.6134 21.3426 18.5108 21.4459 18.5365 21.7041C18.5621 22.6855 18.5365 23.6926 18.5621 24.674C18.5621 24.9064 18.6903 25.1905 18.8442 25.3454C19.7673 26.3267 20.7417 27.2823 21.6905 28.2378C22.2547 28.8059 22.3059 29.5548 21.7931 30.0455C21.3059 30.5362 20.5879 30.4845 20.0238 29.9422C19.5622 29.4774 19.1006 28.9867 18.5621 28.4444C18.5365 28.6251 18.5109 28.7543 18.5109 28.8576C18.5109 29.529 18.5109 30.2004 18.5109 30.8461C18.4852 31.5175 17.9724 32.0082 17.3313 32.0082C16.6902 32.0082 16.203 31.5175 16.203 30.8461C16.1774 30.0713 16.203 29.3224 16.203 28.5477C16.1517 28.5218 16.1261 28.496 16.0748 28.4702C15.6133 28.9609 15.1773 29.4515 14.6901 29.9164C14.5106 30.0971 14.2798 30.2521 14.0491 30.3296C13.5362 30.4845 12.9977 30.2263 12.7413 29.7872C12.4849 29.3224 12.5618 28.7284 12.9721 28.3152C13.9465 27.3339 14.9209 26.3526 15.8953 25.3454C16.0492 25.1905 16.1774 24.9064 16.1774 24.674C16.203 23.6926 16.1774 22.7371 16.203 21.7558C16.203 21.4975 16.1261 21.3684 15.8697 21.2393C15.3825 21.0069 14.9465 20.697 14.485 20.4387C14.3568 20.3613 14.1516 20.3354 14.0234 20.3871C13.1003 20.8777 12.1772 21.3684 11.2797 21.9107C11.1258 21.9882 10.9976 22.1948 10.9463 22.3498C10.536 23.6926 10.1514 25.0355 9.76676 26.3784C9.58727 26.9724 9.22827 27.2823 8.68978 27.3081C7.86922 27.3597 7.27944 26.6108 7.48458 25.7844C7.66408 25.0872 7.86922 24.4157 8.1 23.641C7.51022 23.9767 6.99737 24.2349 6.48452 24.519C6.30502 24.6223 6.09989 24.7514 5.92039 24.8289C5.33061 25.0613 4.71519 24.8289 4.43312 24.2866C4.15105 23.7443 4.33056 23.0728 4.86905 22.7371C5.53575 22.3498 6.2281 21.9624 6.99737 21.5492C6.20245 21.3168 5.51011 21.1102 4.81776 20.8777C4.09977 20.6453 3.79206 19.8964 4.09977 19.2508C4.3562 18.7343 4.89469 18.4761 5.48447 18.631C6.81787 19.0184 8.17693 19.4057 9.51034 19.8189C9.81805 19.9222 10.0488 19.8706 10.3309 19.7156C11.254 19.1733 12.2028 18.6827 13.0746 18.192C13.1003 17.4947 13.1516 16.8749 13.1516 16.2293C13.1516 16.1002 13.0746 15.9452 12.9721 15.8678C12.0489 15.2996 11.1515 14.7315 10.2027 14.1892C10.0488 14.1117 9.81805 14.1117 9.63855 14.1375C8.25386 14.4474 6.8948 14.809 5.51011 15.1189C4.66391 15.2996 3.97156 14.6024 4.12542 13.7501C4.22799 13.2078 4.58698 12.9238 5.07418 12.7946C5.71525 12.6397 6.35631 12.4847 7.09995 12.304C6.38196 11.865 5.74089 11.5034 5.12547 11.0902C4.66391 10.8061 4.48441 10.3413 4.58698 9.8248C4.68955 9.35996 5.07418 8.94676 5.58703 8.92094C5.89474 8.92094 6.2281 9.02424 6.48452 9.15336C7.12558 9.48908 7.71536 9.87645 8.43335 10.3155C8.25385 9.51491 8.07436 8.84347 7.9205 8.17203C7.76665 7.47476 7.97179 6.95827 8.48464 6.70002C9.20263 6.31265 9.99754 6.70002 10.2027 7.52641C10.536 8.92094 10.8694 10.3155 11.2284 11.71C11.254 11.8649 11.331 12.0457 11.4592 12.1232C12.4336 12.743 13.4336 13.3369 14.3311 13.8793C14.9209 13.5694 15.4594 13.2853 15.9722 13.0012C16.0748 12.9238 16.203 12.743 16.203 12.6139C16.2287 11.5551 16.2287 10.5221 16.203 9.46326C16.203 9.28249 16.0492 9.07589 15.921 8.92094C14.9465 7.91378 13.9208 6.90662 12.9464 5.89945C12.5618 5.51208 12.5105 4.94394 12.7669 4.4791C13.0234 4.01426 13.5362 3.78183 14.0747 3.93678C14.3055 4.01425 14.5363 4.1692 14.7158 4.34998C15.203 4.81482 15.6645 5.30549 16.2287 5.87363C16.2287 5.09889 16.2543 4.45327 16.2287 3.83348C16.1774 3.11039 16.4082 2.56807 17.0749 2.25818C17.28 2.25818 17.5108 2.25818 17.7159 2.25818C18.357 2.56807 18.6391 3.08457 18.5621 3.78184C18.5365 4.16921 18.5621 4.55658 18.5621 4.94395C18.5621 5.20219 18.5621 5.46044 18.5621 5.71869C18.6134 5.74451 18.6647 5.74451 18.716 5.77033C19.1776 5.27966 19.6135 4.78899 20.075 4.32415C20.6392 3.75601 21.3828 3.73018 21.87 4.22085C22.3316 4.71152 22.2803 5.43461 21.7162 6.00275C20.7417 6.98409 19.793 7.9396 18.8186 8.92094C18.6903 9.05006 18.5621 9.23083 18.5621 9.38578C18.5365 10.4704 18.5365 11.5551 18.5621 12.6397C18.5621 12.743 18.6391 12.8979 18.7416 12.9496C19.3314 13.2853 19.9468 13.621 20.5879 13.9567C21.4854 13.4661 22.4598 12.9496 23.4086 12.3814C23.5881 12.2781 23.7419 12.0715 23.7932 11.8649C24.2035 10.5479 24.5881 9.20501 24.9728 7.86213C25.2035 7.11321 25.819 6.75167 26.4857 6.95827C27.1267 7.16486 27.4088 7.81048 27.2036 8.53357C27.178 8.66269 27.1267 8.76599 27.1011 8.89511C26.9472 9.43743 26.7934 9.95392 26.6139 10.5737C27.0241 10.3413 27.3575 10.1605 27.6652 10.0056C27.9986 9.8248 28.3063 9.64403 28.6396 9.46326C29.2551 9.15336 29.9218 9.30831 30.2551 9.87645C30.6141 10.4446 30.409 11.1677 29.7679 11.555C29.1268 11.9166 28.4601 12.2781 27.7165 12.6913C28.4088 12.8979 28.9986 13.1045 29.5884 13.2337C30.1782 13.3628 30.5885 13.6985 30.768 14.2666C30.8705 14.6282 30.8705 14.7831 30.8705 14.9381Z" fill="#172634"/>
</g>
</g>
<defs>
<filter id="filter0_i_124_4929" x="3.98096" y="2.25818" width="26.8896" height="30.75" filterUnits="userSpaceOnUse" color-interpolation-filters="sRGB">
<feFlood flood-opacity="0" result="BackgroundImageFix"/>
<feBlend mode="normal" in="SourceGraphic" in2="BackgroundImageFix" result="shape"/>
<feColorMatrix in="SourceAlpha" type="matrix" values="0 0 0 0 0 0 0 0 0 0 0 0 0 0 0 0 0 0 127 0" result="hardAlpha"/>
<feOffset dy="1"/>
<feGaussianBlur stdDeviation="1"/>
<feComposite in2="hardAlpha" operator="arithmetic" k2="-1" k3="1"/>
<feColorMatrix type="matrix" values="0 0 0 0 0 0 0 0 0 0 0 0 0 0 0 0 0 0 0.4 0"/>
<feBlend mode="normal" in2="shape" result="effect1_innerShadow_124_4929"/>
</filter>
</defs>
</svg>
