<svg width="35" height="35" viewBox="0 0 35 35" fill="none" xmlns="http://www.w3.org/2000/svg">
<g filter="url(#filter0_i_124_4934)">
<mask id="mask0_124_4934" style="mask-type:alpha" maskUnits="userSpaceOnUse" x="0" y="0" width="35" height="35">
<rect x="0.333252" y="0.133301" width="34" height="34" fill="#C4C4C4"/>
</mask>
<g mask="url(#mask0_124_4934)">
<path d="M25.3183 11.2804C25.2819 13.6 24.4902 16.7405 20.7789 17.9582C21.9411 15.2636 22.1184 12.6848 21.2951 10.2742C20.1947 7.03791 16.5229 4.51001 14.0798 3.1334C13.2454 2.66115 12.1751 3.2476 12.1909 4.18746C12.2226 5.90359 11.6874 8.41143 9.08916 10.944C5.62799 14.3145 3.87524 17.7977 3.87524 21.2948C3.87524 25.6854 7.04191 31.2999 13.3752 31.2999C6.977 25.0635 11.7919 19.7515 11.7919 19.7515C13.1314 28.8785 19.6896 31.2999 22.8752 31.2999C25.5843 31.2999 30.7919 29.3708 30.7919 21.3488C30.7919 16.5137 28.6829 12.8437 27.0157 10.7017C26.4662 9.99484 25.331 10.3961 25.3183 11.2804Z" fill="#172634"/>
</g>
</g>
<defs>
<filter id="filter0_i_124_4934" x="3.87524" y="2.96655" width="26.9167" height="29.3334" filterUnits="userSpaceOnUse" color-interpolation-filters="sRGB">
<feFlood flood-opacity="0" result="BackgroundImageFix"/>
<feBlend mode="normal" in="SourceGraphic" in2="BackgroundImageFix" result="shape"/>
<feColorMatrix in="SourceAlpha" type="matrix" values="0 0 0 0 0 0 0 0 0 0 0 0 0 0 0 0 0 0 127 0" result="hardAlpha"/>
<feOffset dy="1"/>
<feGaussianBlur stdDeviation="1"/>
<feComposite in2="hardAlpha" operator="arithmetic" k2="-1" k3="1"/>
<feColorMatrix type="matrix" values="0 0 0 0 0 0 0 0 0 0 0 0 0 0 0 0 0 0 0.4 0"/>
<feBlend mode="normal" in2="shape" result="effect1_innerShadow_124_4934"/>
</filter>
</defs>
</svg>
