<svg width="34" height="34" viewBox="0 0 34 34" fill="none" xmlns="http://www.w3.org/2000/svg">
<mask id="mask0_124_5045" style="mask-type:alpha" maskUnits="userSpaceOnUse" x="0" y="0" width="34" height="34">
<rect width="34" height="34" fill="#C4C4C4"/>
</mask>
<g mask="url(#mask0_124_5045)">
<g filter="url(#filter0_d_124_5045)">
<path d="M16.9127 27.0938C16.7026 27.0482 16.518 26.9572 16.4155 26.7599C16.3745 26.6841 16.3334 26.593 16.3334 26.5121C16.3283 25.9355 16.3181 25.3589 16.3334 24.7823C16.3437 24.4485 16.6615 24.1854 17.0101 24.1905C17.3434 24.1905 17.6561 24.4586 17.6663 24.7823C17.6817 25.3387 17.6817 25.9001 17.6715 26.4565C17.6715 26.5677 17.6202 26.6841 17.5638 26.7802C17.4613 26.9623 17.2819 27.0432 17.0819 27.0887C17.0255 27.0938 16.9691 27.0938 16.9127 27.0938Z" fill="#EBFF00"/>
<path d="M14.7647 11.3988C16.2617 11.3988 17.7535 11.3988 19.2504 11.3988C19.2504 11.4292 19.2556 11.4544 19.2556 11.4848C19.2556 11.9602 19.2556 12.4407 19.2556 12.9162C19.2556 12.9668 19.2709 13.0174 19.2966 13.0578C19.7682 13.8469 20.2963 14.6005 20.8704 15.3238C21.378 15.9611 21.7009 16.6844 21.8342 17.4835C22.0239 18.6064 21.8342 19.6737 21.2652 20.6701C20.7679 21.535 20.0604 22.1875 19.1582 22.6326C18.6353 22.8905 18.0765 23.0473 17.492 23.0979C16.1335 23.2193 14.9185 22.8602 13.8675 22.0054C13.0165 21.3124 12.4731 20.4222 12.2219 19.3651C12.0989 18.8391 12.0681 18.3029 12.1296 17.7617C12.2373 16.7906 12.632 15.9409 13.2421 15.1771C13.765 14.5246 14.2213 13.8266 14.6673 13.1236C14.7391 13.0072 14.7698 12.896 14.7698 12.7594C14.7596 12.3092 14.7647 11.8591 14.7647 11.3988Z" fill="#EBFF00"/>
<path d="M14.9492 8.85469C14.9492 8.50569 15.0876 8.22244 15.344 7.99483C15.5285 7.82792 15.7541 7.73182 16.0053 7.70653C16.0309 7.70147 16.0668 7.66101 16.0771 7.63066C16.2309 6.9883 16.9742 6.69999 17.533 7.06922C17.7278 7.20073 17.8611 7.38282 17.9124 7.61043C17.9278 7.68124 17.9483 7.69641 18.0252 7.71159C18.6403 7.79757 19.0607 8.30843 19.0505 8.85469C17.6817 8.85469 16.3231 8.85469 14.9492 8.85469Z" fill="#EBFF00"/>
<path d="M17.005 9.62346C17.5945 9.62346 18.1892 9.62346 18.7788 9.62346C19.0915 9.62346 19.3171 9.82578 19.3171 10.1141C19.3222 10.4176 19.1069 10.63 18.7839 10.6351C18.302 10.6401 17.815 10.6351 17.3331 10.6351C16.6307 10.6351 15.9284 10.6351 15.2261 10.6351C14.9697 10.6351 14.7749 10.5086 14.698 10.2962C14.5801 9.97246 14.8262 9.62851 15.1851 9.62851C15.7951 9.6184 16.4 9.62346 17.005 9.62346Z" fill="#EBFF00"/>
<path d="M25.4946 20.8117C25.4946 21.2619 25.0588 21.5907 24.623 21.4541C24.1104 21.2973 23.608 21.1304 23.1005 20.9635C22.8287 20.8724 22.6698 20.6752 22.6391 20.397C22.6083 20.134 22.716 19.9114 22.9467 19.7647C23.1517 19.6282 23.3773 19.6383 23.6029 19.7091C24.0745 19.8608 24.5461 20.0126 25.0178 20.1643C25.3049 20.2655 25.4946 20.5184 25.4946 20.8117Z" fill="#EBFF00"/>
<path d="M11.3606 20.3312C11.3606 20.6195 11.1915 20.8724 10.9146 20.9584C10.3763 21.1354 9.83805 21.3074 9.29464 21.4642C8.97166 21.5552 8.59742 21.3074 8.52053 20.9786C8.4385 20.6246 8.61793 20.2958 8.96654 20.1795C9.47407 20.0126 9.9816 19.8456 10.4943 19.6888C10.9249 19.5624 11.3606 19.8912 11.3606 20.3312Z" fill="#EBFF00"/>
<path d="M21.8855 11.0802C22.1059 11.0903 22.311 11.2016 22.434 11.4393C22.5622 11.6821 22.5365 11.9249 22.3776 12.1474C22.07 12.5673 21.7624 12.9871 21.4446 13.4069C21.219 13.7053 20.814 13.7711 20.5115 13.5586C20.2091 13.3462 20.1219 12.9466 20.3372 12.6431C20.6551 12.193 20.9832 11.7479 21.3215 11.3078C21.4446 11.146 21.6291 11.0752 21.8855 11.0802Z" fill="#EBFF00"/>
<path d="M24.8537 15.1266C25.2024 15.162 25.4484 15.3896 25.4946 15.7285C25.5356 16.0421 25.3408 16.3405 25.0127 16.4467C24.5205 16.6035 24.0284 16.7603 23.5362 16.9171C23.162 17.0334 22.7929 16.8514 22.675 16.4872C22.557 16.1281 22.7519 15.7588 23.121 15.6425C23.6131 15.4857 24.1053 15.3289 24.5974 15.1721C24.6794 15.1468 24.7666 15.1418 24.8537 15.1266Z" fill="#EBFF00"/>
<path d="M13.1857 22.9462C13.36 22.9462 13.5651 23.0676 13.6932 23.3002C13.8214 23.5379 13.806 23.7807 13.6471 23.9982C13.3395 24.4231 13.0268 24.848 12.7089 25.2678C12.5193 25.5156 12.2168 25.6016 11.9297 25.5004C11.6477 25.3993 11.4632 25.1363 11.4888 24.8277C11.4991 24.7063 11.5452 24.5799 11.617 24.4787C11.9143 24.0589 12.2219 23.6442 12.5295 23.2294C12.6679 23.0423 12.8576 22.9512 13.1857 22.9462Z" fill="#EBFF00"/>
<path d="M8.5 15.8044C8.5 15.3542 8.92551 15.0305 9.36126 15.162C9.87905 15.3188 10.3917 15.4857 10.9044 15.6577C11.253 15.774 11.4324 16.1382 11.3247 16.4821C11.212 16.8362 10.848 17.0385 10.4942 16.9273C9.97133 16.7654 9.44842 16.5934 8.93063 16.4215C8.66918 16.3304 8.5 16.0775 8.5 15.8044Z" fill="#EBFF00"/>
<path d="M12.145 11.0802C12.3911 11.0853 12.5757 11.1712 12.7089 11.3483C13.0165 11.763 13.3241 12.1778 13.6317 12.5925C13.7855 12.7999 13.8214 13.0326 13.7189 13.2703C13.6112 13.5232 13.401 13.6598 13.1293 13.6749C12.9089 13.6901 12.7089 13.6092 12.5705 13.4271C12.2476 13.0022 11.9297 12.5774 11.6221 12.1424C11.335 11.7377 11.5298 11.2168 12.0117 11.0954C12.0579 11.0853 12.1091 11.0802 12.145 11.0802Z" fill="#EBFF00"/>
<path d="M20.9012 22.931C21.137 22.9462 21.3164 23.0423 21.4497 23.2193C21.7624 23.6341 22.07 24.0488 22.3674 24.4737C22.6801 24.9188 22.434 25.4752 21.8855 25.5409C21.6394 25.5713 21.4292 25.4651 21.2805 25.2678C20.9729 24.8632 20.6807 24.4484 20.3731 24.0438C20.0809 23.6543 20.2398 23.1789 20.6141 23.012C20.7012 22.9715 20.8038 22.9563 20.9012 22.931Z" fill="#EBFF00"/>
</g>
</g>
<defs>
<filter id="filter0_d_124_5045" x="4.5" y="2.90625" width="25" height="28.1875" filterUnits="userSpaceOnUse" color-interpolation-filters="sRGB">
<feFlood flood-opacity="0" result="BackgroundImageFix"/>
<feColorMatrix in="SourceAlpha" type="matrix" values="0 0 0 0 0 0 0 0 0 0 0 0 0 0 0 0 0 0 127 0" result="hardAlpha"/>
<feOffset/>
<feGaussianBlur stdDeviation="2"/>
<feComposite in2="hardAlpha" operator="out"/>
<feColorMatrix type="matrix" values="0 0 0 0 0.86 0 0 0 0 1 0 0 0 0 0 0 0 0 0.4 0"/>
<feBlend mode="normal" in2="BackgroundImageFix" result="effect1_dropShadow_124_5045"/>
<feBlend mode="normal" in="SourceGraphic" in2="effect1_dropShadow_124_5045" result="shape"/>
</filter>
</defs>
</svg>
