<svg width="24" height="24" viewBox="0 0 24 24" fill="none" xmlns="http://www.w3.org/2000/svg">
<path d="M12 0C5.37239 0 0 5.37239 0 12C0 18.6276 5.37239 24 12 24C18.6276 24 24 18.6276 24 12C24 5.37239 18.6276 0 12 0ZM12 22.8C6.03558 22.8 1.2 17.9648 1.2 12C1.2 6.0352 6.03558 1.2 12 1.2C17.9644 1.2 22.8 6.03558 22.8 12C22.8 17.9644 17.9644 22.8 12 22.8Z" fill="white"/>
<path d="M18 11.4H6.00002C5.66881 11.4 5.40002 11.6688 5.40002 12C5.40002 12.3312 5.66881 12.6 6.00002 12.6H18C18.3312 12.6 18.6 12.3312 18.6 12C18.6 11.6688 18.3312 11.4 18 11.4Z" fill="white"/>
</svg>
