<svg width="60" height="60" viewBox="0 0 60 60" fill="none" xmlns="http://www.w3.org/2000/svg">
<mask id="mask0_124_4959" style="mask-type:alpha" maskUnits="userSpaceOnUse" x="0" y="0" width="60" height="60">
<rect width="60" height="60" fill="#C4C4C4"/>
</mask>
<g mask="url(#mask0_124_4959)">
<g filter="url(#filter0_i_124_4959)">
<path d="M41.6201 11.3201C40.3621 10.6368 38.7883 11.1025 38.105 12.3606C37.4215 13.6185 37.8874 15.1923 39.1453 15.8757C45.2829 19.2098 49.0956 25.615 49.0956 32.5921C49.0956 43.0738 40.5681 51.6013 30.0864 51.6013C19.6047 51.6013 11.0772 43.0738 11.0772 32.5921C11.0772 25.6454 14.8653 19.2535 20.9633 15.9105C22.2188 15.2223 22.6785 13.6467 21.9903 12.3914C21.302 11.1361 19.7263 10.6762 18.4712 11.3643C10.7127 15.6177 5.89282 23.7518 5.89282 32.5921C5.89282 45.9324 16.746 56.7857 30.0864 56.7857C43.4267 56.7857 54.2799 45.9324 54.2799 32.5921C54.2799 23.7131 49.4289 15.5621 41.6201 11.3201Z" fill="#172634"/>
<path d="M30.0863 25.6797C31.5179 25.6797 32.6785 24.5191 32.6785 23.0875V5.8064C32.6785 4.37483 31.5179 3.21423 30.0863 3.21423C28.6547 3.21423 27.4941 4.37483 27.4941 5.8064V23.0875C27.4941 24.5191 28.6547 25.6797 30.0863 25.6797Z" fill="#172634"/>
</g>
</g>
<defs>
<filter id="filter0_i_124_4959" x="5.89282" y="3.21423" width="48.3871" height="55.5714" filterUnits="userSpaceOnUse" color-interpolation-filters="sRGB">
<feFlood flood-opacity="0" result="BackgroundImageFix"/>
<feBlend mode="normal" in="SourceGraphic" in2="BackgroundImageFix" result="shape"/>
<feColorMatrix in="SourceAlpha" type="matrix" values="0 0 0 0 0 0 0 0 0 0 0 0 0 0 0 0 0 0 127 0" result="hardAlpha"/>
<feOffset dy="2"/>
<feGaussianBlur stdDeviation="1"/>
<feComposite in2="hardAlpha" operator="arithmetic" k2="-1" k3="1"/>
<feColorMatrix type="matrix" values="0 0 0 0 0 0 0 0 0 0 0 0 0 0 0 0 0 0 0.4 0"/>
<feBlend mode="normal" in2="shape" result="effect1_innerShadow_124_4959"/>
</filter>
</defs>
</svg>
