<svg width="16" height="16" viewBox="0 0 16 16" fill="none" xmlns="http://www.w3.org/2000/svg">
<mask id="mask0_124_5044" style="mask-type:alpha" maskUnits="userSpaceOnUse" x="0" y="0" width="16" height="16">
<rect width="16" height="16" fill="#C4C4C4"/>
</mask>
<g mask="url(#mask0_124_5044)">
<path d="M13.1484 2.85164C12.6797 2.38296 11.9199 2.38296 11.4513 2.85164L8 6.30291L4.5486 2.85151C4.07993 2.38283 3.32018 2.38283 2.85151 2.85151C2.38283 3.32018 2.38283 4.07993 2.85151 4.54861L6.3029 8.00002L2.85151 11.4514C2.38283 11.9201 2.38283 12.6799 2.85151 13.1485C3.08578 13.3828 3.39298 13.5 3.70006 13.5C4.00713 13.5 4.3142 13.3828 4.5486 13.1485L8 9.69712L11.4514 13.1485C11.6857 13.3828 11.9929 13.5 12.2999 13.5C12.607 13.5 12.9141 13.3828 13.1485 13.1485C13.6172 12.6799 13.6172 11.9201 13.1485 11.4514L9.6971 8.00002L13.1485 4.54861C13.617 4.08007 13.617 3.32018 13.1484 2.85164Z" fill="#E36566"/>
</g>
</svg>
