<svg width="22" height="22" viewBox="0 0 22 22" fill="none" xmlns="http://www.w3.org/2000/svg">
<mask id="mask0_120_7990" style="mask-type:alpha" maskUnits="userSpaceOnUse" x="0" y="0" width="22" height="22">
<rect width="22" height="22" fill="#C4C4C4"/>
</mask>
<g mask="url(#mask0_120_7990)">
<path d="M11.0411 0C11.2382 0.062799 11.4492 0.0976874 11.6301 0.190723C12.2191 0.495415 12.5669 0.986178 12.5924 1.65371C12.6202 2.38404 12.6017 3.11669 12.6017 3.84935C12.6017 4.21917 12.6017 4.59131 12.6017 4.97275C12.6017 5.17976 12.6086 4.60061 12.6086 5.42165C12.6086 6.37992 12.6086 5.34257 12.6086 6.29386C13.0074 6.29386 13.3993 6.29386 13.8005 6.29386C13.8005 6.44504 13.8005 6.58692 13.8005 6.74043C13.4063 6.74043 13.0098 6.74043 12.6086 6.74043C12.6086 7.69405 12.6086 8.63371 12.6086 9.58732C13.0028 9.58732 13.3993 9.58732 13.8028 9.58732C13.8028 9.74316 13.8028 9.88504 13.8028 10.0409C13.4086 10.0409 13.0121 10.0409 12.6086 10.0409C12.6086 10.9945 12.6086 11.9318 12.6086 12.8808C13.0074 12.8808 13.3993 12.8808 13.8005 12.8808C13.8005 13.0343 13.8005 13.1785 13.8005 13.3367C13.404 13.3367 13.0121 13.3367 12.6017 13.3367C12.6017 13.5762 12.6017 13.8042 12.6017 14.0298C12.6017 14.4019 12.604 14.7741 12.5993 15.1439C12.5993 15.2206 12.6179 15.2648 12.6898 15.309C13.3784 15.7323 13.87 16.3231 14.1483 17.0813C14.4984 18.0419 14.4544 18.9932 13.9883 19.905C13.5222 20.8167 12.7895 21.4238 11.8017 21.7006C11.5837 21.761 11.3588 21.7913 11.1362 21.8355C10.9507 21.8355 10.7652 21.8355 10.5797 21.8355C10.3571 21.7913 10.1322 21.761 9.91419 21.7006C8.98668 21.4401 8.2725 20.8865 7.8041 20.0445C7.20586 18.9723 7.18267 17.8628 7.70671 16.7534C7.99192 16.1487 8.43249 15.6719 9.00291 15.323C9.07016 15.2811 9.09566 15.2392 9.09566 15.1602C9.09334 14.1089 9.09334 13.0599 9.09334 12.0086C9.09334 7.93594 9.09334 5.84264 9.09334 1.77C9.09334 0.874535 9.76579 0.116295 10.6284 0.0162812C10.6423 0.0139553 10.6562 0.00465178 10.6701 0C10.7953 0 10.9182 0 11.0411 0ZM11.9779 7.67079C11.9802 7.67079 11.9802 7.67079 11.9825 7.67079C11.9825 7.36842 11.9825 7.06606 11.9825 6.76369C11.9825 6.41481 11.9779 6.06592 11.9779 5.71704C11.9779 5.36816 11.9825 5.01927 11.9825 4.67039C11.9825 4.3215 11.9779 5.95428 11.9779 5.6054C11.9779 5.25651 11.9825 4.90763 11.9825 4.55875C11.9825 4.20986 11.9779 3.86098 11.9779 3.51209C11.9779 2.93527 11.9895 2.35845 11.9802 1.78163C11.9709 1.28389 11.7414 0.921053 11.28 0.7187C10.6121 0.425638 9.79361 0.895468 9.74956 1.6258C9.71246 2.23518 9.73101 2.84922 9.73101 3.46093C9.72869 4.03775 9.73564 4.61457 9.73564 5.19371C9.73564 5.77053 9.73101 4.36802 9.73101 4.94484C9.73101 5.52632 9.73564 6.10779 9.73564 6.68694C9.73564 7.26608 9.73101 7.84988 9.73101 8.42903C9.73101 9.00817 9.73564 9.59197 9.73564 10.1711C9.73564 10.7479 9.73101 11.3248 9.73101 11.9016C9.73101 12.4831 9.73564 13.0645 9.73564 13.6437C9.73564 14.267 9.73333 14.8904 9.73796 15.5137C9.73796 15.5928 9.71246 15.637 9.64521 15.6788C9.41102 15.8277 9.16291 15.9626 8.95885 16.144C8.22612 16.7953 7.90845 17.6279 7.99192 18.6025C8.04062 19.1746 8.25395 19.691 8.62495 20.1306C9.31595 20.9516 10.1994 21.3098 11.2568 21.1679C12.6179 20.9842 13.6451 19.8771 13.7286 18.4652C13.775 17.6954 13.5292 17.0116 13.0283 16.4208C12.764 16.1091 12.4393 15.8765 12.0799 15.6905C12.008 15.6532 11.9756 15.6067 11.9779 15.5183C11.9849 15.2904 11.9802 15.0625 11.9802 14.8322C11.9825 14.0228 11.9849 13.2134 11.9849 12.404C11.9849 11.5946 11.9802 10.7852 11.9802 9.97574C11.9779 9.21053 11.9779 8.44066 11.9779 7.67079Z" fill="white"/>
<path d="M10.1762 8.65234C10.6377 8.65234 11.0782 8.65234 11.5374 8.65234C11.5374 8.75003 11.5374 8.84074 11.5374 8.93378C11.5374 11.1876 11.535 13.4414 11.535 15.6928C11.535 15.9068 11.535 15.9068 11.7321 15.9789C12.8962 16.4162 13.557 17.6535 13.2764 18.87C13.0306 19.9306 12.1541 20.6912 11.0782 20.7935C9.88638 20.9075 8.79424 20.1353 8.46497 19.0002C8.10092 17.7466 8.7896 16.3976 10.0209 15.9719C10.1414 15.9301 10.1809 15.8766 10.1809 15.7463C10.1762 14.0112 10.1762 12.2784 10.1762 10.5433C10.1762 9.95019 10.1785 9.35941 10.1785 8.76631C10.1762 8.73142 10.1762 8.69654 10.1762 8.65234Z" fill="#39B8FF"/>
</g>
</svg>
