<svg width="35" height="35" viewBox="0 0 35 35" fill="none" xmlns="http://www.w3.org/2000/svg">
<g filter="url(#filter0_i_124_4943)">
<mask id="mask0_124_4943" style="mask-type:alpha" maskUnits="userSpaceOnUse" x="0" y="0" width="35" height="35">
<rect x="0.200073" y="0.133301" width="34" height="34" fill="#C4C4C4"/>
</mask>
<g mask="url(#mask0_124_4943)">
<path d="M9.24332 12.0177C9.75724 11.5038 10.5935 11.5038 11.1075 12.0177C12.5302 13.4404 14.8451 13.4404 16.2678 12.0177C16.5168 11.7687 16.8478 11.6316 17.1999 11.6316C17.5521 11.6316 17.8831 11.7688 18.1321 12.0177C19.5547 13.4404 21.8697 13.4404 23.2924 12.0177C23.5414 11.7687 23.8724 11.6316 24.2245 11.6316C24.5766 11.6316 24.9076 11.7688 25.1566 12.0177C25.8458 12.7069 26.7621 13.0865 27.7367 13.0865C28.7115 13.0865 29.6277 12.7069 30.3169 12.0177C30.7721 11.5626 30.772 10.8247 30.3169 10.3697C29.8617 9.91453 29.1239 9.91453 28.6688 10.3697C28.4199 10.6186 28.0889 10.7558 27.7367 10.7558C27.3846 10.7558 27.0536 10.6186 26.8047 10.3697C26.1155 9.68052 25.1992 9.30096 24.2246 9.3009C24.2244 9.3009 24.2246 9.3009 24.2245 9.3009C23.2499 9.3009 22.3335 9.68052 21.6443 10.3697C21.1304 10.8837 20.294 10.8835 19.7802 10.3697C19.091 9.68052 18.1747 9.30096 17.2001 9.3009C17.1999 9.3009 17.2001 9.3009 17.2 9.3009C16.2254 9.3009 15.309 9.68052 14.6198 10.3697C14.1059 10.8837 13.2695 10.8836 12.7557 10.3697C11.3329 8.94692 9.01799 8.94692 7.59531 10.3697C7.08138 10.8836 6.24511 10.8836 5.73107 10.3697C5.27593 9.91453 4.53808 9.91453 4.083 10.3697C3.62792 10.8248 3.62792 11.5627 4.08306 12.0177C5.50563 13.4404 7.82052 13.4404 9.24332 12.0177Z" fill="#172634"/>
<path d="M28.6688 16.3131C28.4199 16.5621 28.0889 16.6992 27.7367 16.6992C27.3846 16.6992 27.0536 16.5621 26.8047 16.3132C26.1155 15.624 25.1992 15.2444 24.2246 15.2444C24.2244 15.2444 24.2246 15.2444 24.2245 15.2444C23.2499 15.2444 22.3335 15.624 21.6443 16.3131C21.1304 16.8271 20.294 16.827 19.7802 16.3132C19.091 15.624 18.1747 15.2444 17.2001 15.2444C17.1999 15.2444 17.2001 15.2444 17.2 15.2444C16.2254 15.2444 15.309 15.624 14.6198 16.3131C14.1059 16.8271 13.2695 16.8271 12.7557 16.3131C11.3329 14.8904 9.01799 14.8904 7.59531 16.3131C7.08138 16.8271 6.24511 16.8271 5.73107 16.3131C5.27593 15.858 4.53808 15.858 4.083 16.3131C3.62792 16.7683 3.62792 17.5061 4.08306 17.9612C5.50574 19.3839 7.82063 19.3839 9.24343 17.9612C9.75736 17.4473 10.5936 17.4473 11.1076 17.9612C12.5303 19.3839 14.8452 19.3839 16.2679 17.9612C16.5169 17.7122 16.8479 17.5751 17.2001 17.5751C17.5522 17.5751 17.8832 17.7123 18.1322 17.9612C19.5549 19.3839 21.8698 19.3839 23.2925 17.9612C23.5415 17.7122 23.8725 17.5751 24.2246 17.5751C24.5767 17.5751 24.9077 17.7123 25.1567 17.9612C25.8459 18.6504 26.7623 19.03 27.7369 19.03C28.7116 19.03 29.6278 18.6504 30.317 17.9612C30.7722 17.5061 30.7721 16.7682 30.317 16.3131C29.8617 15.858 29.1239 15.858 28.6688 16.3131Z" fill="#172634"/>
<path d="M28.6688 22.2565C28.4199 22.5055 28.0889 22.6426 27.7367 22.6426C27.3846 22.6426 27.0536 22.5054 26.8047 22.2566C26.1155 21.5674 25.1992 21.1878 24.2246 21.1877C24.2244 21.1877 24.2246 21.1877 24.2245 21.1877C23.2499 21.1877 22.3335 21.5674 21.6443 22.2565C21.1304 22.7705 20.294 22.7704 19.7802 22.2566C19.091 21.5674 18.1747 21.1878 17.2001 21.1877C17.1999 21.1877 17.2001 21.1877 17.2 21.1877C16.2254 21.1877 15.309 21.5674 14.6198 22.2565C14.1059 22.7704 13.2695 22.7705 12.7557 22.2565C11.3329 20.8338 9.01799 20.8338 7.59531 22.2565C7.08138 22.7704 6.24511 22.7704 5.73107 22.2565C5.27593 21.8014 4.53808 21.8014 4.083 22.2565C3.62792 22.7116 3.62792 23.4495 4.08306 23.9046C5.50574 25.3273 7.82063 25.3273 9.24343 23.9046C9.75736 23.3906 10.5936 23.3906 11.1076 23.9046C12.5303 25.3273 14.8452 25.3273 16.2679 23.9046C16.5169 23.6556 16.8479 23.5185 17.2001 23.5185C17.5522 23.5185 17.8832 23.6556 18.1322 23.9046C19.5549 25.3273 21.8698 25.3273 23.2925 23.9046C23.5415 23.6556 23.8725 23.5185 24.2246 23.5185C24.5767 23.5185 24.9077 23.6556 25.1567 23.9046C25.8459 24.5938 26.7623 24.9733 27.7369 24.9733C28.7116 24.9733 29.6278 24.5938 30.317 23.9046C30.7722 23.4494 30.7721 22.7116 30.317 22.2565C29.8617 21.8014 29.1239 21.8014 28.6688 22.2565Z" fill="#172634"/>
</g>
</g>
<defs>
<filter id="filter0_i_124_4943" x="3.7417" y="9.3009" width="26.9166" height="16.6725" filterUnits="userSpaceOnUse" color-interpolation-filters="sRGB">
<feFlood flood-opacity="0" result="BackgroundImageFix"/>
<feBlend mode="normal" in="SourceGraphic" in2="BackgroundImageFix" result="shape"/>
<feColorMatrix in="SourceAlpha" type="matrix" values="0 0 0 0 0 0 0 0 0 0 0 0 0 0 0 0 0 0 127 0" result="hardAlpha"/>
<feOffset dy="1"/>
<feGaussianBlur stdDeviation="1"/>
<feComposite in2="hardAlpha" operator="arithmetic" k2="-1" k3="1"/>
<feColorMatrix type="matrix" values="0 0 0 0 0 0 0 0 0 0 0 0 0 0 0 0 0 0 0.4 0"/>
<feBlend mode="normal" in2="shape" result="effect1_innerShadow_124_4943"/>
</filter>
</defs>
</svg>
