<svg width="33" height="34" viewBox="0 0 33 34" fill="none" xmlns="http://www.w3.org/2000/svg">
<mask id="mask0_124_4949" style="mask-type:alpha" maskUnits="userSpaceOnUse" x="0" y="0" width="33" height="34">
<rect width="33" height="34" fill="#C4C4C4"/>
</mask>
<g mask="url(#mask0_124_4949)">
<g filter="url(#filter0_d_124_4949)">
<path d="M17.5343 2.83337C18.1914 2.83337 18.6682 3.45218 18.5479 4.09396L18.5128 4.23162L16.2149 11.3319H22.3476C23.2058 11.3319 23.6679 12.3332 23.1866 13.0133L23.0918 13.1297L6.59538 30.8349C5.89513 31.5865 4.70348 30.9582 4.8256 29.9776L4.85056 29.8418L7.28062 19.8304H3.78205C3.14248 19.8304 2.66887 19.2419 2.76162 18.6117L2.79031 18.4762L6.91599 3.60385C7.02844 3.19847 7.36071 2.90499 7.75659 2.84478L7.90772 2.83337H17.5343ZM24.9516 16.1094L25.021 16.2583L30.1776 29.7083C30.3869 30.254 30.1269 30.8711 29.5971 31.0866C29.1114 31.2841 28.5676 31.0756 28.3191 30.6192L28.259 30.4887L26.8866 26.9118H21.2344L19.8644 30.4887C19.6727 30.9889 19.1533 31.2555 18.6599 31.1305L18.5263 31.0866C18.0406 30.8891 17.7818 30.3541 17.9031 29.846L17.9458 29.7083L23.1024 16.2583C23.4258 15.4148 24.5356 15.3652 24.9516 16.1094ZM24.0605 19.5393L22.0485 24.7872H26.0724L24.0605 19.5393Z" fill="#4FD8E0"/>
</g>
</g>
<defs>
<filter id="filter0_d_124_4949" x="-1.25" y="-1.16663" width="35.5" height="36.3334" filterUnits="userSpaceOnUse" color-interpolation-filters="sRGB">
<feFlood flood-opacity="0" result="BackgroundImageFix"/>
<feColorMatrix in="SourceAlpha" type="matrix" values="0 0 0 0 0 0 0 0 0 0 0 0 0 0 0 0 0 0 127 0" result="hardAlpha"/>
<feOffset/>
<feGaussianBlur stdDeviation="2"/>
<feComposite in2="hardAlpha" operator="out"/>
<feColorMatrix type="matrix" values="0 0 0 0 0.309804 0 0 0 0 0.847059 0 0 0 0 0.878431 0 0 0 0.4 0"/>
<feBlend mode="normal" in2="BackgroundImageFix" result="effect1_dropShadow_124_4949"/>
<feBlend mode="normal" in="SourceGraphic" in2="effect1_dropShadow_124_4949" result="shape"/>
</filter>
</defs>
</svg>
