<svg width="35" height="35" viewBox="0 0 35 35" fill="none" xmlns="http://www.w3.org/2000/svg">
<g filter="url(#filter0_i_124_4956)">
<mask id="mask0_124_4956" style="mask-type:alpha" maskUnits="userSpaceOnUse" x="0" y="0" width="35" height="35">
<rect x="0.266602" y="0.133301" width="34" height="34" fill="#C4C4C4"/>
</mask>
<g mask="url(#mask0_124_4956)">
<path d="M8.79223 17.6978C7.29236 16.8485 5.89248 16.8985 4.64258 17.8977C3.44268 18.797 2.94272 20.046 3.14271 21.5448C3.34269 22.8438 3.79265 24.0928 4.54259 25.2419C5.29253 26.441 6.14246 27.2903 7.14237 27.7899C9.84214 29.1888 12.1919 28.7891 14.2418 26.5909C14.8917 25.8914 15.3917 25.092 15.8416 24.0928C16.3416 22.9937 16.6416 21.9945 16.6916 20.9952C16.6916 20.4956 16.9415 20.2458 17.3415 20.2458C17.7415 20.2458 17.9915 20.4457 18.1914 20.7954C18.7914 22.544 18.6914 24.1927 17.8415 25.6916C16.9915 27.1904 17.0915 28.5893 17.9915 29.7883C18.8914 30.9874 20.1413 31.487 21.6412 31.2372C22.941 31.0374 24.1909 30.5877 25.3408 29.8383C26.5407 29.0889 27.3907 28.2396 27.8906 27.2403C29.2905 24.5425 28.8905 22.1943 26.6407 20.1959C25.9408 19.5464 25.1409 18.9968 24.1409 18.5472C23.041 18.0476 22.0411 17.7478 21.0412 17.6978C20.5412 17.6978 20.2913 17.448 20.2913 17.0483C20.2913 16.6487 20.4913 16.3489 20.8912 16.249C21.5912 15.9992 22.2911 15.8493 23.041 15.8493C23.991 15.8493 24.8909 16.0991 25.7408 16.5487C27.2407 17.3981 28.6406 17.3481 29.8905 16.3989C31.0904 15.4996 31.5903 14.2505 31.3903 12.7517C31.1904 11.4527 30.7404 10.2037 29.9905 9.05463C29.2405 7.85557 28.3906 7.00624 27.3907 6.50663C24.6909 5.10773 22.3411 5.50741 20.2913 7.70569C19.6413 8.40514 19.1414 9.25447 18.6914 10.2037C18.1914 11.3029 17.8915 12.352 17.8415 13.3013C17.8415 13.7509 17.5915 14.0007 17.1915 14.0507C16.7916 14.1007 16.4916 13.8509 16.3416 13.5011C16.0916 12.8017 15.9916 12.1022 15.9916 11.3029C15.9916 10.3536 16.2416 9.45431 16.6916 8.60498C17.5415 7.10616 17.4415 5.70726 16.5416 4.5082C15.6417 3.30914 14.4418 2.80953 12.9419 3.00938C11.642 3.20922 10.3921 3.65887 9.2422 4.40828C8.0423 5.15769 7.19237 6.00702 6.64241 7.00624C5.24253 9.70412 5.6425 12.0523 7.89231 14.1007C8.59225 14.7502 9.44218 15.2997 10.3921 15.7494C11.492 16.249 12.4919 16.4988 13.4918 16.5487C13.9918 16.5487 14.2418 16.7985 14.2418 17.1982C14.2418 17.5979 14.0418 17.8977 13.6418 18.0476C11.942 18.6471 10.2921 18.5472 8.79223 17.6978ZM18.3414 16.0991C18.6414 16.3989 18.7414 16.6986 18.7414 17.0983C18.7414 17.498 18.5914 17.8477 18.3414 18.1475C18.0415 18.3973 17.7415 18.5472 17.3415 18.5472C16.9415 18.5472 16.5916 18.3973 16.2916 18.1475C15.9916 17.8477 15.8916 17.498 15.8916 17.0983C15.8916 16.6986 16.0416 16.3489 16.2916 16.0991C16.5916 15.7993 16.9415 15.6494 17.3415 15.6494C17.7415 15.6994 18.0415 15.7993 18.3414 16.0991Z" fill="#172634"/>
</g>
</g>
<defs>
<filter id="filter0_i_124_4956" x="3.09985" y="2.96655" width="28.3334" height="29.3334" filterUnits="userSpaceOnUse" color-interpolation-filters="sRGB">
<feFlood flood-opacity="0" result="BackgroundImageFix"/>
<feBlend mode="normal" in="SourceGraphic" in2="BackgroundImageFix" result="shape"/>
<feColorMatrix in="SourceAlpha" type="matrix" values="0 0 0 0 0 0 0 0 0 0 0 0 0 0 0 0 0 0 127 0" result="hardAlpha"/>
<feOffset dy="1"/>
<feGaussianBlur stdDeviation="1"/>
<feComposite in2="hardAlpha" operator="arithmetic" k2="-1" k3="1"/>
<feColorMatrix type="matrix" values="0 0 0 0 0 0 0 0 0 0 0 0 0 0 0 0 0 0 0.4 0"/>
<feBlend mode="normal" in2="shape" result="effect1_innerShadow_124_4956"/>
</filter>
</defs>
</svg>
