<svg width="25" height="24" viewBox="0 0 25 24" fill="none" xmlns="http://www.w3.org/2000/svg">
<path d="M12.0667 0C5.45003 0 0.0666504 5.38292 0.0666504 12C0.0666504 18.6171 5.45003 24 12.0667 24C18.6833 24 24.0667 18.6171 24.0667 12C24.0667 5.38292 18.6833 0 12.0667 0ZM12.0667 23.0769C5.95911 23.0769 0.989727 18.1075 0.989727 12C0.989727 5.89246 5.95911 0.923077 12.0667 0.923077C18.1742 0.923077 23.1436 5.89246 23.1436 12C23.1436 18.1075 18.1742 23.0769 12.0667 23.0769Z" fill="white"/>
<path d="M17.8361 11.5386H12.5284V6.46166C12.5284 6.20643 12.3216 6.00012 12.0668 6.00012C11.8121 6.00012 11.6053 6.20643 11.6053 6.46166V11.5386H6.2976C6.04283 11.5386 5.83606 11.7449 5.83606 12.0001C5.83606 12.2554 6.04283 12.4617 6.2976 12.4617H11.6053V18.0001C11.6053 18.2554 11.8121 18.4617 12.0668 18.4617C12.3216 18.4617 12.5284 18.2554 12.5284 18.0001V12.4617H17.8361C18.0908 12.4617 18.2976 12.2554 18.2976 12.0001C18.2976 11.7449 18.0908 11.5386 17.8361 11.5386Z" fill="white"/>
</svg>
